<?xml version="1.0" standalone="no"?>
<!DOCTYPE svg PUBLIC "-//W3C//DTD SVG 20010904//EN"
 "http://www.w3.org/TR/2001/REC-SVG-20010904/DTD/svg10.dtd">
<svg version="1.0" xmlns="http://www.w3.org/2000/svg"
 width="551.000000pt" height="167.000000pt" viewBox="0 0 551.000000 167.000000"
 preserveAspectRatio="xMidYMid meet">

<g transform="translate(0.000000,167.000000) scale(0.100000,-0.100000)"
fill="#FFFFFF" stroke="none">
<path d="M107 1539 c-46 -27 -47 -39 -47 -544 0 -431 2 -480 17 -506 22 -37
66 -53 110 -38 64 21 63 15 63 554 l0 487 -29 29 c-31 31 -79 38 -114 18z"/>
<path d="M1053 1526 l-28 -24 -3 -488 c-2 -363 1 -496 9 -517 28 -68 132 -69
163 -3 23 50 24 961 1 1006 -29 55 -94 67 -142 26z"/>
<path d="M4660 1543 c-162 -24 -223 -83 -237 -227 l-6 -66 -38 0 c-71 0 -101
-77 -47 -123 20 -16 40 -18 209 -15 l187 3 108 -277 c60 -153 111 -278 114
-278 6 0 91 220 90 234 0 12 -137 381 -151 409 -15 29 -50 56 -71 57 -9 0 -29
-5 -45 -12 -15 -6 -32 -10 -38 -8 -5 2 -35 6 -65 9 l-55 6 2 50 c2 39 8 55 29
73 14 12 33 22 43 22 34 0 71 39 71 74 0 49 -42 78 -100 69z"/>
<path d="M4079 1501 c-17 -18 -29 -40 -29 -56 0 -101 132 -140 174 -50 20 41
20 50 -1 85 -33 56 -99 66 -144 21z"/>
<path d="M450 1270 c-57 -10 -95 -25 -131 -51 -28 -20 -29 -23 -29 -111 l0
-90 31 26 c46 39 94 56 156 56 166 0 279 -162 224 -324 -18 -51 -76 -115 -126
-137 -79 -36 -186 -21 -254 37 l-31 26 0 -91 0 -91 41 -29 c59 -44 129 -56
225 -42 43 6 101 22 129 35 68 31 142 107 179 186 29 62 31 71 31 190 0 120
-1 128 -32 192 -35 74 -102 147 -166 179 -38 20 -156 50 -187 48 -8 -1 -35 -5
-60 -9z"/>
<path d="M4110 1269 c-60 -24 -60 -22 -60 -402 0 -385 1 -395 62 -416 47 -17
92 1 112 44 15 30 16 78 14 380 l-3 345 -25 24 c-30 30 -66 39 -100 25z"/>
<path d="M1580 1259 c-59 -16 -171 -100 -213 -159 -167 -239 -45 -581 232
-646 95 -23 91 -26 91 74 l0 88 -45 12 c-55 15 -122 73 -146 127 -27 59 -25
147 5 212 27 58 85 107 148 123 l38 11 0 84 0 85 -37 -1 c-21 -1 -54 -5 -73
-10z"/>
<path d="M1730 1185 l0 -84 38 -11 c165 -44 229 -265 115 -391 -39 -43 -99
-79 -133 -79 -19 0 -20 -6 -20 -91 l0 -92 43 7 c125 20 218 77 284 174 50 74
63 112 70 208 12 160 -53 293 -187 379 -68 45 -123 65 -177 65 l-33 0 0 -85z"/>
<path d="M2458 1251 c-110 -35 -188 -105 -239 -214 -24 -53 -32 -86 -36 -150
-15 -247 141 -433 373 -445 90 -5 136 6 197 46 l37 25 0 95 0 96 -27 -26 c-46
-43 -92 -61 -157 -61 -93 -1 -169 45 -214 127 -23 42 -23 179 0 221 43 80 122
128 213 127 69 0 124 -20 160 -58 l25 -27 0 96 c0 91 -1 96 -26 116 -64 50
-203 65 -306 32z"/>
<path d="M2866 1239 l-26 -31 0 -353 c0 -214 -4 -374 -11 -404 -7 -34 -23 -64
-50 -94 -96 -110 -263 -104 -354 13 -57 74 -123 84 -171 27 -22 -26 -25 -38
-21 -73 13 -116 170 -206 362 -206 228 -1 392 126 425 329 14 82 13 722 -1
761 -23 67 -108 84 -153 31z"/>
<path d="M3385 1253 c-117 -42 -195 -110 -242 -210 -91 -195 -20 -448 152
-549 125 -73 295 -72 392 2 l33 25 0 90 c0 90 -6 104 -27 70 -20 -32 -98 -63
-161 -63 -141 -1 -235 93 -235 237 -1 142 92 237 233 237 64 0 111 -17 158
-57 l33 -27 -3 98 -3 98 -58 30 c-75 38 -194 46 -272 19z"/>
<path d="M3793 1246 l-28 -24 -5 -394 c-4 -340 -7 -397 -21 -423 -56 -101
-166 -149 -270 -119 -43 12 -65 28 -110 74 -30 33 -67 64 -83 69 -40 16 -91
-9 -113 -53 -24 -52 -6 -102 58 -160 176 -159 530 -122 660 68 63 93 64 102
64 539 l0 399 -28 24 c-37 32 -87 32 -124 0z"/>
<path d="M5281 1233 c-23 -22 -66 -123 -209 -493 -185 -478 -185 -479 -183
-518 3 -65 104 -97 150 -48 26 27 391 958 391 996 -1 43 -52 90 -99 90 -11 0
-34 -12 -50 -27z"/>
<path d="M4422 780 l3 -280 28 -27 c38 -39 99 -39 133 0 l24 28 0 280 0 279
-96 0 -95 0 3 -280z"/>
</g>
</svg>
